<mxfile host="65bd71144e">
    <diagram name="ページ1" id="67Z5PMN7GH2vxOy8cik3">
        <mxGraphModel dx="1384" dy="514" grid="1" gridSize="10" guides="1" tooltips="1" connect="1" arrows="1" fold="1" page="1" pageScale="1" pageWidth="827" pageHeight="1169" math="0" shadow="0">
            <root>
                <mxCell id="0"/>
                <mxCell id="1" parent="0"/>
                <mxCell id="fj4fnBQ4ISntvcBp4FlI-1" value="" style="rounded=0;whiteSpace=wrap;html=1;strokeColor=none;fillColor=#666666;align=left;" parent="1" vertex="1">
                    <mxGeometry x="80" y="80" width="360" height="400" as="geometry"/>
                </mxCell>
                <mxCell id="fj4fnBQ4ISntvcBp4FlI-3" value="" style="rounded=0;whiteSpace=wrap;html=1;strokeColor=none;fillColor=#b7b7b7;" parent="1" vertex="1">
                    <mxGeometry x="90" y="210" width="340" height="260" as="geometry"/>
                </mxCell>
                <mxCell id="fj4fnBQ4ISntvcBp4FlI-8" value="Windows PC" style="text;html=1;strokeColor=none;fillColor=none;align=left;verticalAlign=middle;whiteSpace=wrap;rounded=0;spacingRight=0;spacingLeft=10;fontColor=#000000;" parent="1" vertex="1">
                    <mxGeometry x="80" y="80" width="120" height="30" as="geometry"/>
                </mxCell>
                <mxCell id="fj4fnBQ4ISntvcBp4FlI-9" value="Hyper-V" style="text;html=1;strokeColor=none;fillColor=none;align=left;verticalAlign=middle;whiteSpace=wrap;rounded=0;spacingLeft=10;fontColor=#000000;" parent="1" vertex="1">
                    <mxGeometry x="90" y="210" width="120" height="30" as="geometry"/>
                </mxCell>
                <mxCell id="fj4fnBQ4ISntvcBp4FlI-11" value="" style="group" parent="1" vertex="1" connectable="0">
                    <mxGeometry x="100" y="280" width="320" height="180" as="geometry"/>
                </mxCell>
                <mxCell id="fj4fnBQ4ISntvcBp4FlI-4" value="" style="rounded=0;whiteSpace=wrap;html=1;strokeColor=#666666;fillColor=#f5f5f5;fontColor=#333333;" parent="fj4fnBQ4ISntvcBp4FlI-11" vertex="1">
                    <mxGeometry width="320" height="180" as="geometry"/>
                </mxCell>
                <mxCell id="fj4fnBQ4ISntvcBp4FlI-10" value="Ubuntu" style="text;html=1;align=left;verticalAlign=middle;whiteSpace=wrap;rounded=0;spacingLeft=10;fontColor=#000000;" parent="fj4fnBQ4ISntvcBp4FlI-11" vertex="1">
                    <mxGeometry width="120" height="24.545454545454547" as="geometry"/>
                </mxCell>
                <mxCell id="fj4fnBQ4ISntvcBp4FlI-6" value="dnsmasq" style="rounded=1;whiteSpace=wrap;html=1;fillColor=#f5f5f5;fontColor=#333333;strokeColor=#666666;" parent="fj4fnBQ4ISntvcBp4FlI-11" vertex="1">
                    <mxGeometry x="85" y="50" width="150" height="40" as="geometry"/>
                </mxCell>
                <mxCell id="fj4fnBQ4ISntvcBp4FlI-7" value="BedrockConnect" style="rounded=1;whiteSpace=wrap;html=1;fillColor=#f5f5f5;fontColor=#333333;strokeColor=#666666;" parent="fj4fnBQ4ISntvcBp4FlI-11" vertex="1">
                    <mxGeometry x="85" y="100" width="150" height="40" as="geometry"/>
                </mxCell>
                <mxCell id="fj4fnBQ4ISntvcBp4FlI-5" value="マイクラ統合版" style="rounded=1;whiteSpace=wrap;html=1;fillColor=#f5f5f5;fontColor=#333333;strokeColor=#666666;" parent="1" vertex="1">
                    <mxGeometry x="185" y="120" width="150" height="40" as="geometry"/>
                </mxCell>
                <mxCell id="fj4fnBQ4ISntvcBp4FlI-12" value="" style="rounded=0;whiteSpace=wrap;html=1;strokeColor=none;fillColor=#666666;align=left;" parent="1" vertex="1">
                    <mxGeometry x="570" y="80" width="180" height="120" as="geometry"/>
                </mxCell>
                <mxCell id="fj4fnBQ4ISntvcBp4FlI-13" value="マイクラ統合版" style="rounded=1;whiteSpace=wrap;html=1;fillColor=#f5f5f5;fontColor=#333333;strokeColor=#666666;" parent="1" vertex="1">
                    <mxGeometry x="585" y="120" width="150" height="40" as="geometry"/>
                </mxCell>
                <mxCell id="fj4fnBQ4ISntvcBp4FlI-14" value="Nintendo Switch" style="text;html=1;strokeColor=none;fillColor=none;align=left;verticalAlign=middle;whiteSpace=wrap;rounded=0;spacingRight=0;spacingLeft=10;fontColor=#000000;" parent="1" vertex="1">
                    <mxGeometry x="570" y="80" width="120" height="30" as="geometry"/>
                </mxCell>
                <mxCell id="fj4fnBQ4ISntvcBp4FlI-15" value="" style="endArrow=classic;html=1;rounded=0;exitX=0;exitY=0.5;exitDx=0;exitDy=0;entryX=1;entryY=0.5;entryDx=0;entryDy=0;strokeWidth=3;" parent="1" source="fj4fnBQ4ISntvcBp4FlI-13" target="fj4fnBQ4ISntvcBp4FlI-5" edge="1">
                    <mxGeometry width="50" height="50" relative="1" as="geometry">
                        <mxPoint x="540" y="360" as="sourcePoint"/>
                        <mxPoint x="590" y="310" as="targetPoint"/>
                    </mxGeometry>
                </mxCell>
                <mxCell id="fj4fnBQ4ISntvcBp4FlI-17" value="" style="curved=1;endArrow=classic;html=1;rounded=0;exitX=0.5;exitY=1;exitDx=0;exitDy=0;entryX=1;entryY=0.5;entryDx=0;entryDy=0;dashed=1;" parent="1" source="fj4fnBQ4ISntvcBp4FlI-13" target="fj4fnBQ4ISntvcBp4FlI-6" edge="1">
                    <mxGeometry width="50" height="50" relative="1" as="geometry">
                        <mxPoint x="620" y="310" as="sourcePoint"/>
                        <mxPoint x="670" y="260" as="targetPoint"/>
                        <Array as="points">
                            <mxPoint x="670" y="260"/>
                            <mxPoint x="590" y="390"/>
                        </Array>
                    </mxGeometry>
                </mxCell>
                <mxCell id="fj4fnBQ4ISntvcBp4FlI-18" value="" style="curved=1;endArrow=classic;html=1;rounded=0;exitX=0.5;exitY=1;exitDx=0;exitDy=0;entryX=1;entryY=0.5;entryDx=0;entryDy=0;dashed=1;" parent="1" source="fj4fnBQ4ISntvcBp4FlI-13" target="fj4fnBQ4ISntvcBp4FlI-7" edge="1">
                    <mxGeometry width="50" height="50" relative="1" as="geometry">
                        <mxPoint x="665" y="160" as="sourcePoint"/>
                        <mxPoint x="390" y="350" as="targetPoint"/>
                        <Array as="points">
                            <mxPoint x="690" y="260"/>
                            <mxPoint x="680" y="440"/>
                        </Array>
                    </mxGeometry>
                </mxCell>
                <mxCell id="fj4fnBQ4ISntvcBp4FlI-19" value="① DNS問い合わせ" style="text;html=1;strokeColor=none;fillColor=none;align=left;verticalAlign=middle;whiteSpace=wrap;rounded=0;spacingRight=0;spacingLeft=10;fontColor=#000000;" parent="1" vertex="1">
                    <mxGeometry x="440" y="330" width="120" height="30" as="geometry"/>
                </mxCell>
                <mxCell id="fj4fnBQ4ISntvcBp4FlI-20" value="② BedrockConnect接続" style="text;html=1;strokeColor=none;fillColor=none;align=left;verticalAlign=middle;whiteSpace=wrap;rounded=0;spacingRight=0;spacingLeft=10;fontColor=#000000;" parent="1" vertex="1">
                    <mxGeometry x="440" y="380" width="150" height="30" as="geometry"/>
                </mxCell>
                <mxCell id="fj4fnBQ4ISntvcBp4FlI-21" value="③ ゲーム接続" style="text;html=1;strokeColor=none;fillColor=none;align=left;verticalAlign=middle;whiteSpace=wrap;rounded=0;spacingRight=0;spacingLeft=10;fontColor=#000000;" parent="1" vertex="1">
                    <mxGeometry x="450" y="110" width="100" height="30" as="geometry"/>
                </mxCell>
            </root>
        </mxGraphModel>
    </diagram>
</mxfile>
